<svg width="21" height="25" viewBox="0 0 21 25"  xmlns="http://www.w3.org/2000/svg">
<path d="M7.50542 5.20471C7.18498 5.08001 6.89001 4.89782 6.63504 4.66711C6.43067 4.47663 6.20697 4.28652 6.32506 3.95254C6.35772 3.86017 6.28087 3.84023 6.22725 3.80257C5.57251 3.34267 5.58124 2.49269 6.23933 2.02327C6.46412 1.87219 6.72017 1.77391 6.98831 1.73577C7.12487 1.71127 7.26589 1.70139 7.23446 1.49835C7.23344 1.47442 7.23738 1.45053 7.24604 1.42819C7.25469 1.40586 7.26788 1.38555 7.28476 1.36855C7.50041 1.16385 7.68906 0.871861 7.94702 0.782044C8.61468 0.549573 9.20795 0.10727 9.94726 0.0712917C10.3417 0.0520943 10.7338 -0.0159406 11.1308 0.0034363C11.4556 0.0192898 11.7073 0.141344 11.8266 0.4692C11.9123 0.704654 12.0138 0.934333 12.0991 1.16992C12.2163 1.49349 12.3062 1.8172 12.5205 2.10993C12.7756 2.45854 12.7451 2.9195 12.8426 3.33063C12.8756 3.45173 12.8964 3.57582 12.9047 3.70106C12.9285 4.45294 13.4241 4.8201 14.0325 5.09485C14.2437 5.19024 14.4678 5.15408 14.6886 5.13458C15.1697 5.08996 15.6548 5.13986 16.1167 5.28149C16.6024 5.43071 16.9498 5.76214 17.241 6.15309C17.877 7.00665 18.7806 7.50687 19.6812 8.00273C20.0122 8.18496 20.3428 8.3557 20.6279 8.60573C20.7748 8.72672 20.8828 8.88824 20.9386 9.07017C20.9944 9.25211 20.9954 9.44642 20.9415 9.62893C20.8315 10.057 20.7596 10.4948 20.5954 10.9116C20.4148 11.3698 20.1117 11.6624 19.6705 11.883C19.164 12.1363 18.7054 12.4801 18.1809 12.7114C17.7991 12.873 17.4051 13.0045 17.0028 13.1046C16.6466 13.199 16.4248 13.3843 16.3698 13.754C16.3332 14.0004 16.1851 14.1445 15.9519 14.2202C15.5566 14.3487 15.5686 14.3465 15.7649 14.7246C16.1374 15.4425 16.5333 16.1493 16.5746 16.9928C16.5943 17.395 16.8329 17.7256 17.1321 17.9783C17.7431 18.4943 18.0009 19.1595 18.0492 19.9338C18.0653 20.1934 17.9932 20.448 18.0428 20.7115C18.0819 20.9196 18.1389 21.1052 18.3009 21.2443C18.567 21.4725 18.6724 21.7666 18.7086 22.1085C18.7404 22.3975 18.8603 22.6696 19.0521 22.8881C19.3501 23.2402 19.5537 23.6602 19.8334 24.0309C20.0812 24.3591 19.7479 24.8276 19.3121 24.8162C18.852 24.8042 18.4012 24.886 17.9479 24.9406C17.7927 24.9593 17.6361 24.9181 17.4951 24.931C17.0215 24.9744 16.569 24.9119 16.1021 24.8476C15.8659 24.815 15.5772 25.0254 15.2787 24.9974C15.1261 24.9767 14.984 24.9082 14.8727 24.8018C14.7613 24.6954 14.6866 24.5565 14.659 24.405C14.6345 24.2705 14.6593 24.1317 14.7289 24.0141C14.7985 23.8965 14.9082 23.8079 15.0379 23.7647C15.3891 23.6485 15.5353 23.4025 15.5932 23.0623C15.7498 22.1428 15.7352 22.1108 14.9307 21.626C14.6903 21.4812 14.441 21.3575 14.1882 21.2369C13.8187 21.0604 13.5831 20.7721 13.5161 20.3572C13.4545 19.9861 13.4168 19.6114 13.4034 19.2355C13.3935 18.9228 13.2669 18.7004 12.9593 18.5591C12.2112 18.2157 11.6606 17.6298 11.1783 16.9846C10.9581 16.6899 10.71 16.5298 10.3397 16.5054C9.92897 16.4784 9.51539 16.4699 9.11511 16.3202C8.85498 16.2229 8.53041 16.4021 8.38219 16.6638C7.9111 17.4955 7.23402 18.0769 6.32889 18.3959C5.95857 18.5264 5.87859 18.6381 6.05942 18.975C6.48342 19.7648 6.28047 20.3929 5.67154 20.9682C5.54244 21.0989 5.43267 21.2474 5.34556 21.4091C5.14041 21.7641 5.23745 22.1961 5.61806 22.55C5.69679 22.6138 5.75386 22.7004 5.78147 22.7979C5.80908 22.8954 5.80587 22.9991 5.77228 23.0947C5.68092 23.419 5.53713 23.7083 5.22439 23.877C5.08887 23.9526 4.97029 24.0551 4.87599 24.1783C4.48514 24.673 3.95147 24.7441 3.41036 24.5872C3.00914 24.4709 2.61243 24.5131 2.21786 24.4848C1.67107 24.4454 1.12415 24.4135 0.581068 24.3383C0.1806 24.2829 -0.0166478 23.9202 0.144754 23.5684C0.24361 23.3529 0.446866 23.3532 0.633097 23.3169C1.39396 23.1687 2.335 22.2302 2.48733 21.4736C2.51802 21.3417 2.51011 21.2037 2.46454 21.0761C2.39745 20.8953 2.34906 20.7047 2.25998 20.5354C1.98477 20.0126 1.96526 19.4961 2.2061 18.9514C2.33095 18.6691 2.34189 18.3552 2.29881 18.0439C2.27867 17.9394 2.27867 17.832 2.2988 17.7275C2.51036 16.9186 2.7781 16.137 3.40822 15.5381C3.54068 15.4123 3.65658 15.2687 3.77737 15.1309C3.8129 15.0904 3.87673 15.0479 3.8342 14.9851C3.8139 14.9574 3.78452 14.9377 3.75118 14.9294C3.71784 14.9212 3.68267 14.9249 3.65178 14.9399C3.57907 14.9657 3.50871 14.9988 3.435 15.021C3.127 15.1136 2.81506 15.1844 2.49948 15.0644C2.33274 15.0009 2.17576 15.084 2.01298 15.0709C1.5573 15.0342 1.15248 14.8483 0.777179 14.6132C0.39912 14.3763 0.327374 14.0887 0.505175 13.6671C0.561835 13.5449 0.591525 13.4119 0.592228 13.2771C0.592931 13.1424 0.564632 13.0091 0.509251 12.8862C0.361561 12.5407 0.237924 12.1849 0.10508 11.8331C-0.00673095 11.5322 -0.00988752 11.2017 0.0961563 10.8987C0.219517 10.5129 0.350179 10.1276 0.438461 9.73333C0.494271 9.48407 0.480884 9.2189 0.49408 8.96063C0.508736 8.67377 0.629162 8.44451 0.904357 8.35239C1.40944 8.18331 1.76568 7.81726 2.14332 7.475C2.42099 7.22335 2.76368 7.08857 3.10546 6.95574C3.85407 6.66481 4.56632 6.32187 5.18522 5.78822C5.62467 5.4093 6.19945 5.33731 6.75833 5.27756C7.00624 5.25105 7.25321 5.20189 7.50542 5.20471ZM5.17077 13.8255C5.99631 13.6153 6.39024 13.0062 6.72553 12.338C6.76483 12.2597 6.80303 12.1845 6.75245 12.0937C6.55124 11.7324 6.65245 11.4044 6.87859 11.0995C7.014 10.9169 6.96748 10.7841 6.83425 10.6155C6.49369 10.1845 6.03846 10.2388 5.59152 10.3045C5.26099 10.3532 4.91529 10.4262 4.71927 10.7478C4.42491 11.2308 4.54977 11.9622 4.97709 12.3261C5.05035 12.3884 5.12589 12.4484 5.19639 12.5137C5.39919 12.7017 5.47062 12.9149 5.36054 13.1884C5.27905 13.3909 5.23404 13.608 5.17078 13.8255L5.17077 13.8255Z" />
</svg>
