<svg viewBox="0 0 16 16" xmlns="http://www.w3.org/2000/svg">
<path width="16" height="16" fill-rule="evenodd" clip-rule="evenodd" d="M10.1878 11.6231C9.12979 12.3905 7.82856 12.8431 6.4215 12.8431C2.87499 12.8431 0 9.96808 0 6.42157C0 2.87505 2.87499 6.10352e-05 6.4215 6.10352e-05C9.96802 6.10352e-05 12.843 2.87505 12.843 6.42157C12.843 7.82836 12.3907 9.12959 11.6233 10.1876C11.7242 10.2377 11.8185 10.3049 11.9026 10.389L15.6866 14.173C16.1045 14.5908 16.1045 15.2686 15.6866 15.6864C15.2686 16.1045 14.5911 16.1045 14.173 15.6864L10.3892 11.9027C10.3051 11.8185 10.2379 11.724 10.1878 11.6231ZM10.7025 6.42157C10.7025 8.78599 8.78593 10.7026 6.4215 10.7026C4.05708 10.7026 2.1405 8.78599 2.1405 6.42157C2.1405 4.05714 4.05708 2.14056 6.4215 2.14056C8.78593 2.14056 10.7025 4.05714 10.7025 6.42157Z" />
</svg>
